<svg xmlns="http://www.w3.org/2000/svg" viewBox="0 0 24 24" role="img" aria-label="Ollama">
  <circle cx="12" cy="12" r="11" fill="#1a1a1a"/>
  <path fill="#fff" d="M8.2 8.5c0-1.2 1-2.2 2.2-2.2h5.2c1.2 0 2.2 1 2.2 2.2v1.4c0 .5-.2 1-.6 1.3l-.4 1v2.6c0 .7-.6 1.3-1.3 1.3h-1.1c-.7 0-1.3-.6-1.3-1.3v-1.1h-1.4v1.1c0 .7-.6 1.3-1.3 1.3H7.5c-.7 0-1.3-.6-1.3-1.3v-2.6l-.4-1.1c-.4-.3-.6-.8-.6-1.3V8.5zm2.2 0v1.4l.5 1.3v2.4c0 .3.2.6.5.6h1.1c.3 0 .5-.3.5-.6v-2.4l.5-1.3V8.5c0-.7-.5-1.2-1.2-1.2H9c-.7 0-1.2.5-1.2 1.2zm3.8 0c0-.7.5-1.2 1.2-1.2s1.2.5 1.2 1.2-.5 1.2-1.2 1.2-1.2-.5-1.2-1.2zm-3.2 0c0-.7.5-1.2 1.2-1.2s1.2.5 1.2 1.2-.5 1.2-1.2 1.2-1.2-.5-1.2-1.2z"/>
  <path fill="#fff" d="M10.2 7.2h3.6v.9h-3.6V7.2z"/>
</svg>
