<svg xmlns="http://www.w3.org/2000/svg" viewBox="0 0 24 24" role="img" aria-label="OpenAI">
  <path fill="#0f172a" d="M22.282 9.821a5.985 5.985 0 0 0-.516-4.91 6.046 6.046 0 0 0-6.51-2.9A6.065 6.065 0 0 0 4.981 4.18a5.985 5.985 0 0 0-3.998 2.9 6.046 6.046 0 0 0 .743 7.097 5.98 5.98 0 0 0 .51 4.911 6.051 6.051 0 0 0 6.515 2.899A5.985 5.985 0 0 0 13.26 24a6.056 6.056 0 0 0 5.772-4.206 5.99 5.99 0 0 0 3.997-2.9 6.056 6.056 0 0 0-.747-7.073zM13.26 22.43a4.476 4.476 0 0 1-2.876-1.04l.141-.081 4.779-2.758a.795.795 0 0 0 .392-.681v-6.737l2.02 1.168a.071.071 0 0 1 .038.052v5.583a4.504 4.504 0 0 1-4.394 4.494zm-9.322-3.977a4.47 4.47 0 0 1-.535-3.014l.142.085 4.783 2.759a.771.771 0 0 0 .78 0l5.843-3.369v2.332a.08.08 0 0 1-.033.062L9.7 19.95a4.5 4.5 0 0 1-6.24-1.497zm-2.274-9.637a4.485 4.485 0 0 1 2.366-1.973V11.6a.766.766 0 0 0 .388-.676 4.503 4.503 0 0 1 1.342-2.87 4.47 4.47 0 0 1 3.434-1.166 4.484 4.484 0 0 1 4.028 2.334l-.142.085-4.783 2.759a.771.771 0 0 0-.78 0l-5.843 3.369V8.887a.08.08 0 0 1 .032-.062zM3.678 8.116a4.47 4.47 0 0 1 1.342-2.87 4.503 4.503 0 0 1 3.434-1.166 4.484 4.484 0 0 1 4.028 2.334l-.141-.085-4.784-2.759a.795.795 0 0 0-.392-.681V1.507A4.483 4.483 0 0 1 3.678 8.116zM12 3.597a4.466 4.466 0 0 1 2.53.741l.141.081-4.781 2.758a.771.771 0 0 0-.78 0l-5.843 3.369v-2.33a.08.08 0 0 1 .032-.062L7.655 3.66a4.5 4.5 0 0 1 4.345-.963z"/>
</svg>
